<mxfile host="app.diagrams.net" modified="2021-12-16T11:57:45.185Z" agent="5.0 (Windows NT 10.0; Win64; x64) AppleWebKit/537.36 (KHTML, like Gecko) Chrome/96.0.4664.93 Safari/537.36 Edg/96.0.1054.53" etag="Jj5F9IrOQ0KqiWrAHmEp" version="15.9.6" type="github">
  <diagram name="Page-1" id="52a04d89-c75d-2922-d76d-85b35f80e030">
    <mxGraphModel dx="1662" dy="762" grid="1" gridSize="10" guides="1" tooltips="1" connect="1" arrows="1" fold="1" page="1" pageScale="1" pageWidth="1100" pageHeight="850" background="none" math="0" shadow="0">
      <root>
        <mxCell id="0" />
        <mxCell id="1" parent="0" />
        <mxCell id="p4RkM09pUHm_iv8dgquL-131" value="智能制造-QA智能化系统" style="swimlane;html=1;childLayout=stackLayout;startSize=20;rounded=0;shadow=0;labelBackgroundColor=none;strokeWidth=1;fontFamily=Verdana;fontSize=8;align=center;" vertex="1" parent="1">
          <mxGeometry x="20" y="20" width="960" height="750" as="geometry" />
        </mxCell>
        <mxCell id="p4RkM09pUHm_iv8dgquL-132" value="Lane 1" style="swimlane;html=1;startSize=20;" vertex="1" parent="p4RkM09pUHm_iv8dgquL-131">
          <mxGeometry y="20" width="160" height="730" as="geometry" />
        </mxCell>
        <mxCell id="p4RkM09pUHm_iv8dgquL-133" value="" style="rounded=1;whiteSpace=wrap;html=1;shadow=0;labelBackgroundColor=none;strokeWidth=1;fontFamily=Verdana;fontSize=8;align=center;" vertex="1" parent="p4RkM09pUHm_iv8dgquL-132">
          <mxGeometry x="20" y="65" width="100" height="60" as="geometry" />
        </mxCell>
        <mxCell id="p4RkM09pUHm_iv8dgquL-134" value="" style="rounded=1;whiteSpace=wrap;html=1;shadow=0;labelBackgroundColor=none;strokeWidth=1;fontFamily=Verdana;fontSize=8;align=center;" vertex="1" parent="p4RkM09pUHm_iv8dgquL-132">
          <mxGeometry x="20" y="155" width="100" height="60" as="geometry" />
        </mxCell>
        <mxCell id="p4RkM09pUHm_iv8dgquL-135" value="" style="rounded=1;whiteSpace=wrap;html=1;shadow=0;labelBackgroundColor=none;strokeWidth=1;fontFamily=Verdana;fontSize=8;align=center;" vertex="1" parent="p4RkM09pUHm_iv8dgquL-132">
          <mxGeometry x="30" y="560" width="100" height="60" as="geometry" />
        </mxCell>
        <mxCell id="p4RkM09pUHm_iv8dgquL-136" style="edgeStyle=orthogonalEdgeStyle;rounded=1;html=1;labelBackgroundColor=none;startArrow=none;startFill=0;startSize=5;endArrow=classicThin;endFill=1;endSize=5;jettySize=auto;orthogonalLoop=1;strokeWidth=1;fontFamily=Verdana;fontSize=8" edge="1" parent="p4RkM09pUHm_iv8dgquL-131" source="p4RkM09pUHm_iv8dgquL-133" target="p4RkM09pUHm_iv8dgquL-152">
          <mxGeometry relative="1" as="geometry" />
        </mxCell>
        <mxCell id="p4RkM09pUHm_iv8dgquL-137" style="edgeStyle=orthogonalEdgeStyle;rounded=1;html=1;labelBackgroundColor=none;startArrow=none;startFill=0;startSize=5;endArrow=classicThin;endFill=1;endSize=5;jettySize=auto;orthogonalLoop=1;strokeWidth=1;fontFamily=Verdana;fontSize=8" edge="1" parent="p4RkM09pUHm_iv8dgquL-131" source="p4RkM09pUHm_iv8dgquL-152" target="p4RkM09pUHm_iv8dgquL-134">
          <mxGeometry relative="1" as="geometry">
            <Array as="points">
              <mxPoint x="240" y="155" />
              <mxPoint x="70" y="155" />
            </Array>
          </mxGeometry>
        </mxCell>
        <mxCell id="p4RkM09pUHm_iv8dgquL-138" style="edgeStyle=orthogonalEdgeStyle;rounded=1;html=1;labelBackgroundColor=none;startArrow=none;startFill=0;startSize=5;endArrow=classicThin;endFill=1;endSize=5;jettySize=auto;orthogonalLoop=1;strokeWidth=1;fontFamily=Verdana;fontSize=8" edge="1" parent="p4RkM09pUHm_iv8dgquL-131" source="p4RkM09pUHm_iv8dgquL-134" target="p4RkM09pUHm_iv8dgquL-154">
          <mxGeometry relative="1" as="geometry" />
        </mxCell>
        <mxCell id="p4RkM09pUHm_iv8dgquL-139" style="edgeStyle=orthogonalEdgeStyle;rounded=1;html=1;labelBackgroundColor=none;startArrow=none;startFill=0;startSize=5;endArrow=classicThin;endFill=1;endSize=5;jettySize=auto;orthogonalLoop=1;strokeWidth=1;fontFamily=Verdana;fontSize=8" edge="1" parent="p4RkM09pUHm_iv8dgquL-131" source="p4RkM09pUHm_iv8dgquL-155" target="p4RkM09pUHm_iv8dgquL-134">
          <mxGeometry relative="1" as="geometry" />
        </mxCell>
        <mxCell id="p4RkM09pUHm_iv8dgquL-140" style="edgeStyle=orthogonalEdgeStyle;rounded=1;html=1;labelBackgroundColor=none;startArrow=none;startFill=0;startSize=5;endArrow=classicThin;endFill=1;endSize=5;jettySize=auto;orthogonalLoop=1;strokeWidth=1;fontFamily=Verdana;fontSize=8" edge="1" parent="p4RkM09pUHm_iv8dgquL-131" source="p4RkM09pUHm_iv8dgquL-160" target="p4RkM09pUHm_iv8dgquL-134">
          <mxGeometry relative="1" as="geometry" />
        </mxCell>
        <mxCell id="p4RkM09pUHm_iv8dgquL-141" style="edgeStyle=orthogonalEdgeStyle;rounded=1;html=1;labelBackgroundColor=none;startArrow=none;startFill=0;startSize=5;endArrow=classicThin;endFill=1;endSize=5;jettySize=auto;orthogonalLoop=1;strokeWidth=1;fontFamily=Verdana;fontSize=8" edge="1" parent="p4RkM09pUHm_iv8dgquL-131" source="p4RkM09pUHm_iv8dgquL-163" target="p4RkM09pUHm_iv8dgquL-134">
          <mxGeometry relative="1" as="geometry">
            <Array as="points">
              <mxPoint x="20" y="690" />
              <mxPoint x="20" y="370" />
              <mxPoint x="70" y="370" />
            </Array>
          </mxGeometry>
        </mxCell>
        <mxCell id="p4RkM09pUHm_iv8dgquL-142" style="edgeStyle=orthogonalEdgeStyle;rounded=1;html=1;labelBackgroundColor=none;startArrow=none;startFill=0;startSize=5;endArrow=classicThin;endFill=1;endSize=5;jettySize=auto;orthogonalLoop=1;strokeWidth=1;fontFamily=Verdana;fontSize=8" edge="1" parent="p4RkM09pUHm_iv8dgquL-131" source="p4RkM09pUHm_iv8dgquL-155" target="p4RkM09pUHm_iv8dgquL-159">
          <mxGeometry relative="1" as="geometry" />
        </mxCell>
        <mxCell id="p4RkM09pUHm_iv8dgquL-143" style="edgeStyle=orthogonalEdgeStyle;rounded=1;html=1;labelBackgroundColor=none;startArrow=none;startFill=0;startSize=5;endArrow=classicThin;endFill=1;endSize=5;jettySize=auto;orthogonalLoop=1;strokeWidth=1;fontFamily=Verdana;fontSize=8" edge="1" parent="p4RkM09pUHm_iv8dgquL-131" source="p4RkM09pUHm_iv8dgquL-163" target="p4RkM09pUHm_iv8dgquL-171">
          <mxGeometry relative="1" as="geometry" />
        </mxCell>
        <mxCell id="p4RkM09pUHm_iv8dgquL-144" style="edgeStyle=orthogonalEdgeStyle;rounded=1;html=1;labelBackgroundColor=none;startArrow=none;startFill=0;startSize=5;endArrow=classicThin;endFill=1;endSize=5;jettySize=auto;orthogonalLoop=1;strokeWidth=1;fontFamily=Verdana;fontSize=8" edge="1" parent="p4RkM09pUHm_iv8dgquL-131" source="p4RkM09pUHm_iv8dgquL-171" target="p4RkM09pUHm_iv8dgquL-175">
          <mxGeometry relative="1" as="geometry" />
        </mxCell>
        <mxCell id="p4RkM09pUHm_iv8dgquL-145" style="edgeStyle=orthogonalEdgeStyle;rounded=1;html=1;labelBackgroundColor=none;startArrow=none;startFill=0;startSize=5;endArrow=classicThin;endFill=1;endSize=5;jettySize=auto;orthogonalLoop=1;strokeWidth=1;fontFamily=Verdana;fontSize=8" edge="1" parent="p4RkM09pUHm_iv8dgquL-131" source="p4RkM09pUHm_iv8dgquL-161" target="p4RkM09pUHm_iv8dgquL-168">
          <mxGeometry relative="1" as="geometry" />
        </mxCell>
        <mxCell id="p4RkM09pUHm_iv8dgquL-146" style="edgeStyle=orthogonalEdgeStyle;rounded=1;html=1;labelBackgroundColor=none;startArrow=none;startFill=0;startSize=5;endArrow=classicThin;endFill=1;endSize=5;jettySize=auto;orthogonalLoop=1;strokeWidth=1;fontFamily=Verdana;fontSize=8" edge="1" parent="p4RkM09pUHm_iv8dgquL-131" source="p4RkM09pUHm_iv8dgquL-170" target="p4RkM09pUHm_iv8dgquL-156">
          <mxGeometry relative="1" as="geometry">
            <Array as="points">
              <mxPoint x="660" y="610" />
              <mxPoint x="660" y="550" />
              <mxPoint x="400" y="550" />
            </Array>
          </mxGeometry>
        </mxCell>
        <mxCell id="p4RkM09pUHm_iv8dgquL-147" style="edgeStyle=orthogonalEdgeStyle;rounded=1;html=1;labelBackgroundColor=none;startArrow=none;startFill=0;startSize=5;endArrow=classicThin;endFill=1;endSize=5;jettySize=auto;orthogonalLoop=1;strokeColor=#000000;strokeWidth=1;fontFamily=Verdana;fontSize=8;fontColor=#000000;" edge="1" parent="p4RkM09pUHm_iv8dgquL-131" source="p4RkM09pUHm_iv8dgquL-170" target="p4RkM09pUHm_iv8dgquL-162">
          <mxGeometry relative="1" as="geometry" />
        </mxCell>
        <mxCell id="p4RkM09pUHm_iv8dgquL-148" style="edgeStyle=orthogonalEdgeStyle;rounded=1;html=1;labelBackgroundColor=none;startArrow=none;startFill=0;startSize=5;endArrow=classicThin;endFill=1;endSize=5;jettySize=auto;orthogonalLoop=1;strokeWidth=1;fontFamily=Verdana;fontSize=8" edge="1" parent="p4RkM09pUHm_iv8dgquL-131" source="p4RkM09pUHm_iv8dgquL-170" target="p4RkM09pUHm_iv8dgquL-135">
          <mxGeometry relative="1" as="geometry">
            <Array as="points">
              <mxPoint x="660" y="610" />
              <mxPoint x="660" y="550" />
              <mxPoint x="80" y="550" />
            </Array>
          </mxGeometry>
        </mxCell>
        <mxCell id="p4RkM09pUHm_iv8dgquL-149" style="edgeStyle=orthogonalEdgeStyle;rounded=1;html=1;labelBackgroundColor=none;startArrow=none;startFill=0;startSize=5;endArrow=classicThin;endFill=1;endSize=5;jettySize=auto;orthogonalLoop=1;strokeWidth=1;fontFamily=Verdana;fontSize=8" edge="1" parent="p4RkM09pUHm_iv8dgquL-131" source="p4RkM09pUHm_iv8dgquL-135" target="p4RkM09pUHm_iv8dgquL-162">
          <mxGeometry relative="1" as="geometry">
            <Array as="points">
              <mxPoint x="80" y="650" />
              <mxPoint x="490" y="650" />
              <mxPoint x="490" y="610" />
            </Array>
          </mxGeometry>
        </mxCell>
        <mxCell id="p4RkM09pUHm_iv8dgquL-150" style="edgeStyle=orthogonalEdgeStyle;rounded=1;html=1;labelBackgroundColor=none;startArrow=none;startFill=0;startSize=5;endArrow=classicThin;endFill=1;endSize=5;jettySize=auto;orthogonalLoop=1;strokeWidth=1;fontFamily=Verdana;fontSize=8" edge="1" parent="p4RkM09pUHm_iv8dgquL-131" source="p4RkM09pUHm_iv8dgquL-156" target="p4RkM09pUHm_iv8dgquL-162">
          <mxGeometry relative="1" as="geometry" />
        </mxCell>
        <mxCell id="p4RkM09pUHm_iv8dgquL-151" value="Lane 2" style="swimlane;html=1;startSize=20;" vertex="1" parent="p4RkM09pUHm_iv8dgquL-131">
          <mxGeometry x="160" y="20" width="160" height="730" as="geometry" />
        </mxCell>
        <mxCell id="p4RkM09pUHm_iv8dgquL-152" value="" style="rounded=1;whiteSpace=wrap;html=1;shadow=0;labelBackgroundColor=none;strokeWidth=1;fontFamily=Verdana;fontSize=8;align=center;" vertex="1" parent="p4RkM09pUHm_iv8dgquL-151">
          <mxGeometry x="30" y="65" width="100" height="60" as="geometry" />
        </mxCell>
        <mxCell id="p4RkM09pUHm_iv8dgquL-153" value="Lane 3" style="swimlane;html=1;startSize=20;" vertex="1" parent="p4RkM09pUHm_iv8dgquL-131">
          <mxGeometry x="320" y="20" width="160" height="730" as="geometry" />
        </mxCell>
        <mxCell id="p4RkM09pUHm_iv8dgquL-154" value="" style="rounded=1;whiteSpace=wrap;html=1;shadow=0;labelBackgroundColor=none;strokeWidth=1;fontFamily=Verdana;fontSize=8;align=center;" vertex="1" parent="p4RkM09pUHm_iv8dgquL-153">
          <mxGeometry x="30" y="155" width="100" height="60" as="geometry" />
        </mxCell>
        <mxCell id="p4RkM09pUHm_iv8dgquL-155" value="" style="rhombus;whiteSpace=wrap;html=1;rounded=0;shadow=0;labelBackgroundColor=none;strokeWidth=1;fontFamily=Verdana;fontSize=8;align=center;" vertex="1" parent="p4RkM09pUHm_iv8dgquL-153">
          <mxGeometry x="40" y="240" width="80" height="60" as="geometry" />
        </mxCell>
        <mxCell id="p4RkM09pUHm_iv8dgquL-156" value="" style="rounded=1;whiteSpace=wrap;html=1;shadow=0;labelBackgroundColor=none;strokeWidth=1;fontFamily=Verdana;fontSize=8;align=center;" vertex="1" parent="p4RkM09pUHm_iv8dgquL-153">
          <mxGeometry x="30" y="560" width="100" height="60" as="geometry" />
        </mxCell>
        <mxCell id="p4RkM09pUHm_iv8dgquL-157" style="edgeStyle=orthogonalEdgeStyle;rounded=1;html=1;labelBackgroundColor=none;startArrow=none;startFill=0;startSize=5;endArrow=classicThin;endFill=1;endSize=5;jettySize=auto;orthogonalLoop=1;strokeWidth=1;fontFamily=Verdana;fontSize=8" edge="1" parent="p4RkM09pUHm_iv8dgquL-153" source="p4RkM09pUHm_iv8dgquL-154" target="p4RkM09pUHm_iv8dgquL-155">
          <mxGeometry relative="1" as="geometry" />
        </mxCell>
        <mxCell id="p4RkM09pUHm_iv8dgquL-158" value="Lane 4" style="swimlane;html=1;startSize=20;" vertex="1" parent="p4RkM09pUHm_iv8dgquL-131">
          <mxGeometry x="480" y="20" width="160" height="730" as="geometry" />
        </mxCell>
        <mxCell id="p4RkM09pUHm_iv8dgquL-159" value="" style="rounded=1;whiteSpace=wrap;html=1;shadow=0;labelBackgroundColor=none;strokeWidth=1;fontFamily=Verdana;fontSize=8;align=center;" vertex="1" parent="p4RkM09pUHm_iv8dgquL-158">
          <mxGeometry x="30" y="240" width="100" height="60" as="geometry" />
        </mxCell>
        <mxCell id="p4RkM09pUHm_iv8dgquL-160" value="" style="rhombus;whiteSpace=wrap;html=1;rounded=0;shadow=0;labelBackgroundColor=none;strokeWidth=1;fontFamily=Verdana;fontSize=8;align=center;" vertex="1" parent="p4RkM09pUHm_iv8dgquL-158">
          <mxGeometry x="40" y="320" width="80" height="60" as="geometry" />
        </mxCell>
        <mxCell id="p4RkM09pUHm_iv8dgquL-161" value="" style="rounded=1;whiteSpace=wrap;html=1;shadow=0;labelBackgroundColor=none;strokeWidth=1;fontFamily=Verdana;fontSize=8;align=center;" vertex="1" parent="p4RkM09pUHm_iv8dgquL-158">
          <mxGeometry x="30" y="400" width="100" height="60" as="geometry" />
        </mxCell>
        <mxCell id="p4RkM09pUHm_iv8dgquL-162" value="" style="rounded=1;whiteSpace=wrap;html=1;shadow=0;labelBackgroundColor=none;strokeWidth=1;fontFamily=Verdana;fontSize=8;align=center;" vertex="1" parent="p4RkM09pUHm_iv8dgquL-158">
          <mxGeometry x="30" y="560" width="100" height="60" as="geometry" />
        </mxCell>
        <mxCell id="p4RkM09pUHm_iv8dgquL-163" value="" style="rhombus;whiteSpace=wrap;html=1;rounded=0;shadow=0;labelBackgroundColor=none;strokeWidth=1;fontFamily=Verdana;fontSize=8;align=center;" vertex="1" parent="p4RkM09pUHm_iv8dgquL-158">
          <mxGeometry x="40" y="640" width="80" height="60" as="geometry" />
        </mxCell>
        <mxCell id="p4RkM09pUHm_iv8dgquL-164" style="edgeStyle=orthogonalEdgeStyle;rounded=1;html=1;labelBackgroundColor=none;startArrow=none;startFill=0;startSize=5;endArrow=classicThin;endFill=1;endSize=5;jettySize=auto;orthogonalLoop=1;strokeColor=#000000;strokeWidth=1;fontFamily=Verdana;fontSize=8;fontColor=#000000;" edge="1" parent="p4RkM09pUHm_iv8dgquL-158" source="p4RkM09pUHm_iv8dgquL-159" target="p4RkM09pUHm_iv8dgquL-160">
          <mxGeometry relative="1" as="geometry" />
        </mxCell>
        <mxCell id="p4RkM09pUHm_iv8dgquL-165" style="edgeStyle=orthogonalEdgeStyle;rounded=1;html=1;labelBackgroundColor=none;startArrow=none;startFill=0;startSize=5;endArrow=classicThin;endFill=1;endSize=5;jettySize=auto;orthogonalLoop=1;strokeWidth=1;fontFamily=Verdana;fontSize=8" edge="1" parent="p4RkM09pUHm_iv8dgquL-158" source="p4RkM09pUHm_iv8dgquL-160" target="p4RkM09pUHm_iv8dgquL-161">
          <mxGeometry relative="1" as="geometry" />
        </mxCell>
        <mxCell id="p4RkM09pUHm_iv8dgquL-166" style="edgeStyle=orthogonalEdgeStyle;rounded=1;html=1;labelBackgroundColor=none;startArrow=none;startFill=0;startSize=5;endArrow=classicThin;endFill=1;endSize=5;jettySize=auto;orthogonalLoop=1;strokeWidth=1;fontFamily=Verdana;fontSize=8" edge="1" parent="p4RkM09pUHm_iv8dgquL-158" source="p4RkM09pUHm_iv8dgquL-162" target="p4RkM09pUHm_iv8dgquL-163">
          <mxGeometry relative="1" as="geometry" />
        </mxCell>
        <mxCell id="p4RkM09pUHm_iv8dgquL-167" value="Lane 5" style="swimlane;html=1;startSize=20;" vertex="1" parent="p4RkM09pUHm_iv8dgquL-131">
          <mxGeometry x="640" y="20" width="160" height="730" as="geometry" />
        </mxCell>
        <mxCell id="p4RkM09pUHm_iv8dgquL-168" value="" style="rounded=1;whiteSpace=wrap;html=1;shadow=0;labelBackgroundColor=none;strokeWidth=1;fontFamily=Verdana;fontSize=8;align=center;" vertex="1" parent="p4RkM09pUHm_iv8dgquL-167">
          <mxGeometry x="30" y="400" width="100" height="60" as="geometry" />
        </mxCell>
        <mxCell id="p4RkM09pUHm_iv8dgquL-169" value="" style="rounded=1;whiteSpace=wrap;html=1;shadow=0;labelBackgroundColor=none;strokeWidth=1;fontFamily=Verdana;fontSize=8;align=center;" vertex="1" parent="p4RkM09pUHm_iv8dgquL-167">
          <mxGeometry x="30" y="480" width="100" height="60" as="geometry" />
        </mxCell>
        <mxCell id="p4RkM09pUHm_iv8dgquL-170" value="" style="rounded=1;whiteSpace=wrap;html=1;shadow=0;labelBackgroundColor=none;strokeWidth=1;fontFamily=Verdana;fontSize=8;align=center;" vertex="1" parent="p4RkM09pUHm_iv8dgquL-167">
          <mxGeometry x="30" y="560" width="100" height="60" as="geometry" />
        </mxCell>
        <mxCell id="p4RkM09pUHm_iv8dgquL-171" value="" style="rounded=1;whiteSpace=wrap;html=1;shadow=0;labelBackgroundColor=none;strokeWidth=1;fontFamily=Verdana;fontSize=8;align=center;" vertex="1" parent="p4RkM09pUHm_iv8dgquL-167">
          <mxGeometry x="30" y="640" width="100" height="60" as="geometry" />
        </mxCell>
        <mxCell id="p4RkM09pUHm_iv8dgquL-172" style="edgeStyle=orthogonalEdgeStyle;rounded=1;html=1;labelBackgroundColor=none;startArrow=none;startFill=0;startSize=5;endArrow=classicThin;endFill=1;endSize=5;jettySize=auto;orthogonalLoop=1;strokeWidth=1;fontFamily=Verdana;fontSize=8" edge="1" parent="p4RkM09pUHm_iv8dgquL-167" source="p4RkM09pUHm_iv8dgquL-168" target="p4RkM09pUHm_iv8dgquL-169">
          <mxGeometry relative="1" as="geometry" />
        </mxCell>
        <mxCell id="p4RkM09pUHm_iv8dgquL-173" style="edgeStyle=orthogonalEdgeStyle;rounded=1;html=1;labelBackgroundColor=none;startArrow=none;startFill=0;startSize=5;endArrow=classicThin;endFill=1;endSize=5;jettySize=auto;orthogonalLoop=1;strokeWidth=1;fontFamily=Verdana;fontSize=8" edge="1" parent="p4RkM09pUHm_iv8dgquL-167" source="p4RkM09pUHm_iv8dgquL-169" target="p4RkM09pUHm_iv8dgquL-170">
          <mxGeometry relative="1" as="geometry" />
        </mxCell>
        <mxCell id="p4RkM09pUHm_iv8dgquL-174" value="Lane 6" style="swimlane;html=1;startSize=20;" vertex="1" parent="p4RkM09pUHm_iv8dgquL-131">
          <mxGeometry x="800" y="20" width="160" height="730" as="geometry" />
        </mxCell>
        <mxCell id="p4RkM09pUHm_iv8dgquL-175" value="" style="rounded=1;whiteSpace=wrap;html=1;shadow=0;labelBackgroundColor=none;strokeWidth=1;fontFamily=Verdana;fontSize=8;align=center;" vertex="1" parent="p4RkM09pUHm_iv8dgquL-174">
          <mxGeometry x="30" y="640" width="100" height="60" as="geometry" />
        </mxCell>
      </root>
    </mxGraphModel>
  </diagram>
</mxfile>
